<?xml version="1.0" encoding="UTF-8"?>
<svg width="25px" height="19px" viewBox="0 0 25 19" version="1.1" xmlns="http://www.w3.org/2000/svg" xmlns:xlink="http://www.w3.org/1999/xlink">
    <!-- Generator: Sketch 42 (36781) - http://www.bohemiancoding.com/sketch -->
    <title>camera pink</title>
    <desc>Created with Sketch.</desc>
    <defs>
        <path d="M0,2.8604512 C0,2.30341716 0.455262884,1.85185185 0.995457033,1.85185185 L24.004543,1.85185185 C24.5543187,1.85185185 25,2.30596595 25,2.8604512 L25,16.5839932 C25,17.1410273 24.5447371,17.5925926 24.004543,17.5925926 L0.995457033,17.5925926 C0.445681294,17.5925926 0,17.1384785 0,16.5839932 L0,2.8604512 Z" id="path-1"></path>
        <mask id="mask-2" maskContentUnits="userSpaceOnUse" maskUnits="objectBoundingBox" x="0" y="0" width="25" height="15.7407407" fill="white">
            <use xlink:href="#path-1"></use>
        </mask>
        <rect id="path-3" x="1.9444501" y="3.7037037" width="3.17460317" height="2.77777778"></rect>
        <mask id="mask-4" maskContentUnits="userSpaceOnUse" maskUnits="objectBoundingBox" x="0" y="0" width="3.17460317" height="2.77777778" fill="white">
            <use xlink:href="#path-3"></use>
        </mask>
    </defs>
    <g id="Blog" stroke="none" stroke-width="1" fill="none" fill-rule="evenodd">
        <g id="Mobile-Portrait" transform="translate(-92.000000, -153.000000)" stroke="#F65C5B">
            <g id="Group" transform="translate(92.000000, 154.000000)">
                <g id="camera-pink">
                    <g id="Group-3">
                        <use id="Rectangle" mask="url(#mask-2)" stroke-width="2.4" xlink:href="#path-1"></use>
                        <ellipse id="Oval" stroke-width="1.2" cx="12.5" cy="9.72222222" rx="5.09259259" ry="5.09259259"></ellipse>
                        <ellipse id="Oval" stroke-width="1.2" cx="12.5" cy="9.72222222" rx="3.24074074" ry="3.24074074"></ellipse>
                        <polyline id="Path-3" stroke-width="1.3" points="2.77777778 2.40974825 2.77777778 0.462962963 6.24998167 0.462962963 6.24998167 2.50000004"></polyline>
                        <path d="M0,7.96296296 L7.87037037,7.96296299" id="Path-4" stroke-width="1.2"></path>
                        <path d="M17.1167982,8 L24.537037,7.99999999" id="Path-4" stroke-width="1.2"></path>
                        <use id="Rectangle-2" mask="url(#mask-4)" stroke-width="2" xlink:href="#path-3"></use>
                        <path d="M21.0648148,6.01851852 C21.4483459,6.01851852 21.7592593,5.70760515 21.7592593,5.32407407 C21.7592593,4.940543 21.4483459,4.62962963 21.0648148,4.62962963 C20.6812837,4.62962963 20.3703704,4.940543 20.3703704,5.32407407 C20.3703704,5.70760515 20.6812837,6.01851852 21.0648148,6.01851852 Z" id="Oval-2"></path>
                    </g>
                </g>
            </g>
        </g>
    </g>
</svg>