<?xml version="1.0" encoding="UTF-8"?>
<svg width="249px" height="24px" viewBox="0 0 249 24" version="1.1" xmlns="http://www.w3.org/2000/svg" xmlns:xlink="http://www.w3.org/1999/xlink">
    <!-- Generator: Sketch 42 (36781) - http://www.bohemiancoding.com/sketch -->
    <title>Group 3</title>
    <desc>Created with Sketch.</desc>
    <defs></defs>
    <g id="Blog" stroke="none" stroke-width="1" fill="none" fill-rule="evenodd">
        <g id="Mobile-Portrait" transform="translate(-62.000000, -1569.000000)">
            <g id="Group-3" transform="translate(62.000000, 1569.000000)">
                <g id="hiking-blk-large" transform="translate(45.000000, 5.000000)" fill="#000000">
                    <g id="Group-11">
                        <path d="M24.2028222,8.80722222 L23.855,9.03027778 C23.4491111,7.85972222 22.4056444,6.91222222 22.0289333,6.745 C21.9130889,6.68916667 21.5941556,6.55 19.6230667,7.16305556 L18.4345778,6.99583333 L18.4345778,6.85638889 L18.4634667,6.49416667 L18.0867556,6.46638889 C17.2172,6.38277778 16.3476444,6.18777778 15.5650444,5.88111111 L15.8548,5.29583333 L15.1302667,4.96138889 L14.8405111,5.54666667 C14.4926889,5.35166667 14.1737556,5.18444444 13.8551111,4.96138889 L14.3187778,4.43194444 L13.7681556,3.93027778 L13.3333778,4.45972222 C13.0144444,4.18111111 12.7535778,3.90222222 12.4638222,3.59583333 L12.9855556,3.23361111 L12.5218889,2.62055556 L11.9998667,2.98222222 C11.7678889,2.67555556 11.5939778,2.36916667 11.4492444,2.00666667 L11.9998667,1.78361111 L11.6809333,1.08694444 L11.1592,1.31 C11.0433556,0.975555556 10.9272222,0.668888889 10.8402667,0.306666667 L10.7822,0 L1.768,0 L1.79688889,0.390277778 C1.9708,3.81833333 1.44906667,4.84972222 0.9854,5.825 C0.492844444,6.82833333 0,7.77611111 0.289755556,10.8419444 L0,10.8419444 L0,14.2422222 L2.75368889,14.2422222 L2.75368889,13.7683333 L3.94217778,13.7683333 L3.94217778,14.2422222 L6.69586667,14.2422222 L6.69586667,13.7683333 L7.88435556,13.7683333 L7.88435556,14.2422222 L10.6380444,14.2422222 L10.6380444,13.7683333 L11.8265333,13.7683333 L11.8265333,14.2422222 L14.5802222,14.2422222 L14.5802222,13.7683333 L15.7687111,13.7683333 L15.7687111,14.2422222 L18.5224,14.2422222 L18.5224,13.7405556 L19.7978444,13.6291667 L19.9428667,14.075 L22.5226444,13.5175 L22.4068,13.0158333 L23.5372222,12.5977778 L23.8269778,13.0436111 L26,11.9008333 L24.2028222,8.80722222 L24.2028222,8.80722222 Z M19.7100222,7.91527778 L19.7969778,7.8875 C20.5506889,7.63666667 21.5072,7.41361111 21.7388889,7.44166667 C21.9997556,7.58111111 22.8693111,8.445 23.1882444,9.44833333 C21.9128,10.2008333 20.2898222,10.8697222 17.9709111,10.8697222 L12.4927111,10.8697222 C12.6085556,10.4516667 12.8405333,10.1172222 13.1302889,9.92222222 C13.9417778,9.39277778 15.4200222,9.64361111 16.9563333,10.0058333 L17.1302444,10.0336111 L17.2752667,9.92222222 C17.8550667,9.53194444 18.1737111,8.50083333 18.3187333,7.74833333 L19.7100222,7.91527778 L19.7100222,7.91527778 Z M1.71022222,6.15944444 C2.17388889,5.15611111 2.75368889,4.06916667 2.63784444,0.780277778 L10.1452,0.780277778 C10.5799778,2.4525 11.5364889,3.90166667 12.8119333,5.04444444 L12.8119333,5.04444444 L13.4206222,5.51833333 L13.4206222,5.51833333 C14.6091111,6.41027778 16.0581778,6.99555556 17.6233778,7.19055556 C17.5075333,7.94305556 17.2755556,8.86277778 16.9566222,9.225 C15.3044667,8.89055556 13.7392667,8.63972222 12.7246889,9.30861111 C12.2318444,9.64305556 11.8840222,10.1725 11.7101111,10.8694444 L1.13042222,10.8694444 C0.840666667,7.97111111 1.21737778,7.135 1.71022222,6.15944444 L1.71022222,6.15944444 Z M23.9130667,11.6780556 L21.5072,12.5419444 L21.6230444,12.96 L20.5215111,13.2108333 L20.4056667,12.8486111 L17.7681111,13.0994444 L17.7681111,13.5452778 L16.5796222,13.5452778 L16.5796222,13.0713889 L13.8262222,13.0713889 L13.8262222,13.5452778 L12.6377333,13.5452778 L12.6377333,13.0713889 L9.85515556,13.0713889 L9.85515556,13.5452778 L8.69555556,13.5452778 L8.69555556,13.0713889 L5.94186667,13.0713889 L5.94186667,13.5452778 L4.75337778,13.5452778 L4.75337778,13.0713889 L1.99968889,13.0713889 L1.99968889,13.5452778 L0.840666667,13.5452778 L0.840666667,11.6222222 L17.9712,11.6222222 C20.6668222,11.6222222 22.5220667,10.7861111 23.9422444,9.89416667 L24.9857111,11.6222222 L24.1742222,12.0402778 L23.9130667,11.6780556 L23.9130667,11.6780556 Z" id="Shape"></path>
                        <path d="M6.93333333,9.33388889 C7.02028889,9.66833333 7.07835556,9.975 7.10724444,10.3094444 L7.88984444,10.2536111 C7.86095556,9.89138889 7.80288889,9.52888889 7.68704444,9.16666667 L6.93333333,9.33388889 L6.93333333,9.33388889 Z" id="Shape"></path>
                        <path d="M6.70424444,7.5 L6.06666667,7.91805556 C6.26946667,8.19666667 6.41448889,8.47555556 6.55951111,8.78194444 L7.28404444,8.4475 C7.13902222,8.14111111 6.93593333,7.80666667 6.70424444,7.5 L6.70424444,7.5 Z" id="Shape"></path>
                        <path d="M2.6,5.72472222 C2.94782222,5.83611111 3.23757778,5.94777778 3.55651111,6.08694444 L3.90433333,5.41805556 C3.55651111,5.25083333 3.20868889,5.08361111 2.83197778,5 L2.6,5.72472222 L2.6,5.72472222 Z" id="Shape"></path>
                        <path d="M4.33333333,6.44638889 C4.62308889,6.64138889 4.85506667,6.86444444 5.08704444,7.0875 L5.63766667,6.58583333 C5.3768,6.30722222 5.08704444,6.08416667 4.76811111,5.83333333 L4.33333333,6.44638889 L4.33333333,6.44638889 Z" id="Shape"></path>
                        <path d="M10.6958222,2.64222222 C10.6958222,2.11277778 10.2610444,1.66666667 9.68124444,1.66666667 C9.10144444,1.66666667 8.66666667,2.08472222 8.66666667,2.64222222 C8.66666667,3.17166667 9.10144444,3.61777778 9.68124444,3.61777778 C10.2610444,3.61777778 10.6958222,3.17166667 10.6958222,2.64222222 L10.6958222,2.64222222 Z M9.68124444,2.83722222 C9.5654,2.83722222 9.44926667,2.72583333 9.44926667,2.61416667 C9.44926667,2.50277778 9.56511111,2.39111111 9.68124444,2.39111111 C9.79737778,2.39111111 9.91322222,2.5025 9.91322222,2.61416667 C9.91322222,2.75361111 9.79737778,2.83722222 9.68124444,2.83722222 L9.68124444,2.83722222 Z" id="Shape"></path>
                        <path d="M11.4291882,4.81055556 C11.5742104,4.5875 11.6319882,4.33666667 11.5450327,4.08583333 C11.4291882,3.66777778 11.0521882,3.33333333 10.5596327,3.33333333 C10.4726771,3.33333333 10.3857215,3.33333333 10.298766,3.36111111 C10.0378993,3.41694444 9.83509932,3.58416667 9.6900771,3.77916667 C9.54505487,3.97416667 9.4872771,4.25305556 9.57423265,4.50388889 C9.6900771,4.92194444 10.0670771,5.25638889 10.5596327,5.25638889 C10.6465882,5.25638889 10.7335438,5.25638889 10.8204993,5.22861111 C11.081366,5.20055556 11.3133438,5.03333333 11.4291882,4.81055556 L11.4291882,4.81055556 Z M10.7624327,4.42027778 C10.7335438,4.47611111 10.6754771,4.50388889 10.6174104,4.53166667 C10.501566,4.55944444 10.3565438,4.47583333 10.3276549,4.36444444 C10.298766,4.30861111 10.3276549,4.25305556 10.3565438,4.19722222 C10.3854327,4.14138889 10.4434993,4.11361111 10.501566,4.08583333 L10.5596327,4.08583333 C10.6754771,4.08583333 10.7624327,4.16944444 10.7916104,4.25305556 C10.7916104,4.30888889 10.7916104,4.3925 10.7624327,4.42027778 L10.7624327,4.42027778 Z" id="Shape"></path>
                        <path d="M12.3010046,6.92305556 C12.4749157,6.92305556 12.6488268,6.89527778 12.7646712,6.81166667 C13.2575157,6.56083333 13.4314268,5.97555556 13.1705601,5.50166667 C12.996649,5.16722222 12.6488268,5 12.2721157,5 C12.0982046,5 11.9242935,5.02777778 11.808449,5.11138889 C11.5475823,5.25083333 11.4025601,5.44583333 11.3156046,5.66888889 C11.228649,5.91972222 11.2575379,6.17055556 11.4025601,6.42138889 C11.6053601,6.7 11.9531823,6.92305556 12.3010046,6.92305556 L12.3010046,6.92305556 Z M12.0979157,5.86388889 C12.1268046,5.80805556 12.1559823,5.7525 12.2137601,5.72444444 C12.242649,5.69666667 12.2718268,5.69666667 12.3296046,5.69666667 C12.4165601,5.69666667 12.5035157,5.7525 12.5324046,5.80805556 C12.5904712,5.91944444 12.5612935,6.05888889 12.445449,6.11472222 C12.3296046,6.17055556 12.1845823,6.11472222 12.1265157,6.03111111 C12.0690268,5.97555556 12.0690268,5.91972222 12.0979157,5.86388889 L12.0979157,5.86388889 Z" id="Shape"></path>
                        <path d="M14.8598162,8.58607608 C15.1206829,8.58607608 15.3526606,8.4746872 15.5554606,8.30746497 C15.9321718,7.94524275 15.9613495,7.30413164 15.5843495,6.94190942 C15.2365273,6.5796872 14.5408829,6.5796872 14.1641718,6.91413164 C13.7874606,7.27635386 13.7582829,7.91746497 14.1352829,8.2796872 C14.3380829,8.4746872 14.6278384,8.58607608 14.8598162,8.58607608 L14.8598162,8.58607608 Z M14.714794,7.47135386 C14.7728606,7.44357608 14.8017495,7.41552053 14.8887051,7.41552053 C14.9467718,7.41552053 15.0045495,7.44329831 15.0626162,7.47135386 C15.1495718,7.55496497 15.1495718,7.69440942 15.0626162,7.77802053 C14.9756606,7.86163164 14.8306384,7.86163164 14.7436829,7.77802053 C14.6278384,7.69440942 14.6278384,7.5271872 14.714794,7.47135386 L14.714794,7.47135386 Z" id="Shape"></path>
                    </g>
                </g>
                <g id="bonfire-blk-large" transform="translate(135.000000, 0.000000)" fill="#333333">
                    <path d="M20.5485598,19.2388289 L17.5493723,18.1243037 L20.5485598,17.0097784 C20.7279983,16.9567058 20.8561687,16.8240242 20.933071,16.63827 C21.0099732,16.4790521 21.0099732,16.2667615 20.9587051,16.1075437 L19.7795373,12.7374316 C19.6513669,12.3659231 19.2668557,12.1801689 18.9079786,12.3128505 L16.1138637,13.3743031 C16.1651319,13.0558673 16.190766,12.7108952 16.190766,12.3659231 C16.190766,11.9944147 16.1651319,11.6494426 16.0882297,11.3044705 C16.0113274,10.9329621 15.7037184,10.6941352 15.3448413,10.7206716 C14.9859642,10.7737442 14.7296234,11.0656437 14.7296234,11.4371521 C14.7296234,11.5698337 14.7039893,11.6759789 14.6783552,11.8086605 C14.601453,12.0740237 14.4220144,12.2863142 14.1656736,12.4189958 C13.9349669,12.5516773 13.652992,12.5516773 13.3966512,12.4720684 C13.1403103,12.3924595 12.9352377,12.2067052 12.8070673,11.9413421 C12.6788969,11.7025152 12.6788969,11.4106158 12.7557991,11.1452526 C12.8070673,10.9860347 12.8839695,10.8533531 13.0121399,10.7206716 C13.037774,10.6941352 13.0634081,10.6675989 13.0890422,10.6145263 L14.7039893,8.96927472 C14.9090619,8.75698419 14.9603301,8.43854841 14.8321597,8.14664893 L11.1664861,0.398044736 C11.0639498,0.159217894 10.807609,0 10.5512682,0 C10.2949274,0 10.0642206,0.159217894 9.93605022,0.398044736 L7.57771477,5.33379946 C7.42391028,5.62569894 7.5264466,5.99720736 7.78278741,6.20949788 L9.52590492,7.5893863 C9.551539,7.61592262 9.57717308,7.64245893 9.62844125,7.66899525 C9.75661165,7.77514051 9.85914797,7.90782209 9.93605022,8.04050367 C10.192391,8.54469367 9.9616843,9.18156525 9.47463676,9.4469284 C8.96195514,9.71229156 8.37237128,9.47346472 8.11603047,8.96927472 C8.03912822,8.81005683 8.01349414,8.65083893 8.01349414,8.49162104 L8.01349414,8.35893946 L8.01349414,7.48324104 C8.01349414,7.16480525 7.80842149,6.87290578 7.47517844,6.79329683 C7.16756947,6.71368788 6.8599605,6.87290578 6.70615601,7.16480525 L5.52698828,9.63268261 C5.5013542,9.68575525 5.47572012,9.76536419 5.47572012,9.81843682 C5.11684299,10.6145263 4.93740442,11.4371521 4.93740442,12.3128505 C4.93740442,12.6843589 4.9630385,13.029331 5.03994075,13.3743031 L2.11765551,12.2863142 C1.75877838,12.1536326 1.37426716,12.3393868 1.24609676,12.7108952 L0.0412949493,16.0810073 C-0.0868754557,16.4525158 0.0925631113,16.8505605 0.451440245,16.9832421 L3.42499364,18.0977673 L0.451440245,19.2122926 C0.0925631113,19.3449742 -0.0868754557,19.7430189 0.0412949493,20.1145273 L1.22046268,23.4846394 C1.27173084,23.6703936 1.39990124,23.8030752 1.57933981,23.8826842 C1.68187613,23.9357568 1.75877838,23.9357568 1.8613147,23.9357568 C1.93821694,23.9357568 2.01511919,23.9092205 2.09202143,23.8826842 L10.3718296,20.7779352 C10.4230978,20.7513989 10.4487318,20.7513989 10.4743659,20.7248626 L18.9079786,23.9357568 C18.9848808,23.9622931 19.0617831,23.9888294 19.1386853,23.9888294 C19.2412216,23.9888294 19.3437579,23.9622931 19.4206602,23.9357568 C19.5744647,23.8561479 19.7026351,23.7234663 19.7795373,23.5377121 L20.9587051,20.1676 C21.0868755,19.7695552 20.9074369,19.3715105 20.5485598,19.2388289 L20.5485598,19.2388289 Z M15.575548,15.046091 L18.72854,13.8519568 L19.4462943,15.8952531 L15.575548,17.3547505 L14.1400395,16.8240242 C14.7039893,16.3463705 15.1910368,15.7360352 15.5242799,15.0726273 C15.549914,15.046091 15.549914,15.046091 15.575548,15.046091 L15.575548,15.046091 Z M6.75742417,10.2960905 C6.78305825,10.2430179 6.80869234,10.1634089 6.83432642,10.1103363 L6.9881309,9.79190051 C7.60334885,10.8798895 8.96195514,11.3044705 10.0642206,10.7206716 C11.2433883,10.1368726 11.7304359,8.65083893 11.140852,7.43016841 C10.9870475,7.11173262 10.7819749,6.84636946 10.5256341,6.63407894 C10.5,6.60754262 10.4743659,6.5810063 10.4487318,6.55446999 L9.06449146,5.43994473 L10.5512682,2.30865947 L13.3966512,8.30586683 L12.0636789,9.68575525 C12.0380449,9.71229156 12.0124108,9.73882788 11.9867767,9.76536419 C11.75607,10.0307274 11.5766314,10.3226268 11.4740951,10.6410626 C11.2690224,11.2513979 11.3202906,11.9148058 11.5766314,12.525141 C11.8586063,13.10894 12.3456538,13.5600573 12.9352377,13.7723479 C13.4735534,13.9581021 14.0631373,13.9581021 14.5758189,13.7192752 C14.0118691,15.4706721 12.4225561,16.7444152 10.5256341,16.7444152 C8.16729863,16.7444152 6.27037663,14.7541916 6.27037663,12.3393868 C6.29601071,11.6229063 6.4498152,10.9329621 6.75742417,10.2960905 L6.75742417,10.2960905 Z M2.27146,22.3701142 L1.55370573,20.3268179 L5.34754972,18.8938568 C5.3731838,18.8938568 5.39881788,18.8673205 5.42445196,18.8673205 L8.50054168,20.0349184 L2.27146,22.3701142 L2.27146,22.3701142 Z M18.72854,22.3701142 L1.55370573,15.8952531 L2.27146,13.8519568 L5.60389053,15.0991637 C6.55235152,16.9036331 8.42363944,18.15084 10.5512682,18.15084 C11.2690224,18.15084 11.9867767,17.9916221 12.6276287,17.7527952 C12.6532628,17.7527952 12.6788969,17.7793315 12.704531,17.7793315 L19.4719284,20.3268179 L18.72854,22.3701142 L18.72854,22.3701142 Z" id="Shape"></path>
                </g>
                <g id="stargazing-blk-large" transform="translate(176.000000, 2.000000)" fill="#333333">
                    <g id="Group-11">
                        <path d="M19.2785631,8.96016807 C19.2013655,8.96016807 19.1262544,8.94056489 19.0521865,8.90858077 C18.9280445,8.846676 18.8320692,8.7435014 18.786168,8.61453315 L16.3993038,1.86897759 C16.3544458,1.74000934 16.3617482,1.59762838 16.4212112,1.47485061 C16.4817174,1.35104108 16.589168,1.25715219 16.7195692,1.21072362 L20.1308655,0.0293744164 C20.2602235,-0.016022409 20.4041865,-0.00880018674 20.5293717,0.0510410831 C20.6545569,0.110882353 20.7505322,0.215088702 20.7953902,0.344056956 L23.1791248,7.08961251 C23.2761433,7.35992997 23.1311371,7.65294585 22.8588594,7.74889823 L19.4486063,8.92921569 C19.3954026,8.95088235 19.3359396,8.96016807 19.2785631,8.96016807 L19.2785631,8.96016807 Z M17.55831,2.01548553 L19.5998717,7.78810458 L22.0232482,6.94929505 L19.9837729,1.176676 L17.55831,2.01548553 L17.55831,2.01548553 Z" id="Shape"></path>
                        <path d="M12.9013505,11.3059062 C12.685406,11.3059062 12.4840665,11.1738427 12.4079122,10.961303 L10.6219369,5.90162045 C10.5270048,5.63336648 10.6699245,5.33931886 10.9422023,5.24542997 L17.7627085,2.88685854 C18.0360295,2.79090616 18.3312579,2.9353506 18.4272332,3.20463632 L20.2163381,8.26328711 C20.2622394,8.39225537 20.2528505,8.53463632 20.1944307,8.6574141 C20.1339245,8.78122362 20.0275171,8.877176 19.8971159,8.92154108 L13.0755665,11.2790808 C13.0171468,11.2976522 12.958727,11.3059062 12.9013505,11.3059062 L12.9013505,11.3059062 Z M11.7788566,6.04812838 L13.2226591,10.1338427 L19.0604616,8.11677918 L17.6145727,4.03003314 L11.7788566,6.04812838 L11.7788566,6.04812838 Z" id="Shape"></path>
                        <path d="M7.49190603,11.5967034 C7.41366529,11.5967034 7.33646775,11.5760685 7.26552948,11.5420209 C7.14138751,11.4832113 7.0454122,11.379005 6.99951096,11.2500367 L5.80712208,7.87519547 C5.71218998,7.60590976 5.85510973,7.31186214 6.12738751,7.21797325 L10.3909863,5.74257642 C10.5224307,5.69821135 10.6653505,5.70646531 10.7894924,5.76424309 C10.9136344,5.82202087 11.0096097,5.92932246 11.055511,6.05829071 L12.2478999,9.43210023 C12.342832,9.70344944 12.1999122,9.99646531 11.9276344,10.0913859 L7.66507887,11.565751 C7.60770232,11.5863859 7.55032578,11.5967034 7.49190603,11.5967034 L7.49190603,11.5967034 Z M6.96404183,8.02170341 L7.81217146,10.4215447 L11.0920233,9.28765579 L10.2438937,6.88781452 L6.96404183,8.02170341 L6.96404183,8.02170341 Z" id="Shape"></path>
                        <path d="M3.04292725,11.8123683 C2.82698281,11.8123683 2.6256433,11.6792731 2.55053219,11.4677651 L1.95485935,9.78189212 C1.91000133,9.65292386 1.9173038,9.51054291 1.97676676,9.38776513 C2.03727293,9.26395561 2.14368034,9.17006672 2.27408157,9.1246699 L6.53663713,7.64824132 C6.81100133,7.55332069 7.10727293,7.69776513 7.20220503,7.96705085 L7.79787787,9.65395561 C7.8427359,9.78292386 7.83543343,9.92530482 7.77597046,10.0480826 C7.71442108,10.1718921 7.60905688,10.2668128 7.47865565,10.3111778 L3.21505688,11.7845112 C3.15768034,11.8041143 3.1003038,11.8123683 3.04292725,11.8123683 L3.04292725,11.8123683 Z M3.1117791,9.92736831 L3.36214948,10.6392731 L6.64200133,9.50744767 L6.38954454,8.79451117 L3.1117791,9.92736831 L3.1117791,9.92736831 Z" id="Shape"></path>
                        <path d="M1.71412825,13.5686601 C1.63588751,13.5686601 1.55868998,13.5480252 1.4867085,13.5139776 C1.36256652,13.4551681 1.26659121,13.3509617 1.22068998,13.2219935 L0.0293442979,9.84818394 C-0.0655878008,9.57889823 0.0773319522,9.28485061 0.34960973,9.19096172 L2.05421467,8.60080299 C2.18357269,8.55540616 2.32857887,8.56262838 2.45376405,8.62246965 C2.57790603,8.68334267 2.67388133,8.78651727 2.71978257,8.91548553 L3.91217146,12.2913585 C4.00710356,12.5596125 3.8641838,12.8536601 3.59190603,12.9485808 L1.88625788,13.536676 C1.82992454,13.5583427 1.77150479,13.5686601 1.71412825,13.5686601 L1.71412825,13.5686601 Z M1.18626405,9.99572362 L2.03439368,12.3935014 L2.7542085,12.1458824 L1.90607887,9.74707283 L1.18626405,9.99572362 L1.18626405,9.99572362 Z" id="Shape"></path>
                        <path d="M23.3634074,7.1773421 L23.0191481,6.20440559 C24.2647407,5.77313575 24.8937963,4.57011988 24.4827716,3.40527861 C24.2887346,2.86567543 23.9183951,2.44885004 23.4082654,2.20535797 C22.8501481,1.94019924 22.1668457,1.91750083 21.5315309,2.13623099 L21.1851852,1.16226273 C22.0927778,0.846548448 23.0420988,0.888850035 23.8589321,1.27678654 C24.6152593,1.63686591 25.1848519,2.27242146 25.4665185,3.06377067 C26.0757531,4.78369131 25.1712901,6.55313575 23.3634074,7.1773421 L23.3634074,7.1773421 Z" id="Shape"></path>
                        <path d="M12.077705,12.9851919 C11.8617606,12.9851919 11.6604211,12.8500331 11.58531,12.6385252 C11.4893347,12.3682077 11.6332976,12.0741601 11.9055754,11.9792395 L16.168131,10.5059062 C16.4404087,10.4099538 16.7377235,10.5543982 16.8326556,10.8236839 C16.9275877,11.0940014 16.784668,11.3870173 16.5123902,11.4819379 L12.2498347,12.9552712 C12.1935013,12.9748744 12.1350816,12.9851919 12.077705,12.9851919 L12.077705,12.9851919 Z" id="Shape"></path>
                        <path d="M9.18759925,19.7818143 C9.09058073,19.7818143 8.992519,19.7560206 8.90488937,19.6992746 C8.66286468,19.5486397 8.59401283,19.2257032 8.75049431,18.9863381 L14.1595375,10.7117349 C14.3149758,10.4744333 14.6373276,10.4032429 14.8793523,10.5590365 C15.121377,10.7117349 15.1912721,11.0326079 15.0337474,11.271973 L9.6257474,19.5476079 C9.52664246,19.6992746 9.35868567,19.7818143 9.18759925,19.7818143 L9.18759925,19.7818143 Z" id="Shape"></path>
                        <path d="M19.411245,19.7839382 C19.2401586,19.7839382 19.073245,19.7013985 18.9730968,19.5476684 L13.5650968,11.2720334 C13.4086154,11.0326684 13.4785104,10.7117953 13.7184487,10.5590969 C13.9604734,10.404335 14.2828252,10.4724303 14.4393067,10.7117953 L19.8473067,18.9863985 C20.002745,19.2257636 19.9338931,19.5466366 19.6939549,19.699335 C19.6063252,19.7581446 19.5082635,19.7839382 19.411245,19.7839382 L19.411245,19.7839382 Z" id="Shape"></path>
                    </g>
                </g>
                <g id="swimming-blk-large" transform="translate(91.000000, 3.000000)" fill="#333333">
                    <path d="M0.692003515,3.53870826 C1.90208699,3.53870826 3.03743409,2.95502801 3.96056678,1.87594739 C4.88462214,2.95549758 6.02089192,3.53917783 7.23051406,3.53917783 C8.4401362,3.53917783 9.57594464,2.95549758 10.4995387,1.87594739 C11.423594,2.95549758 12.5598638,3.53917783 13.7699473,3.53917783 C14.9795694,3.53917783 16.1153779,2.95549758 17.0394332,1.87594739 C17.9625659,2.95502801 19.0983743,3.53870826 20.3079965,3.53870826 C20.6899824,3.53870826 21,3.22362423 21,2.83434754 C21,2.44507085 20.6899824,2.12998682 20.3079965,2.12998682 C19.3161248,2.12998682 18.3616213,1.48760984 17.6207162,0.321658062 C17.4933875,0.121150044 17.2742531,0 17.0394332,0 C16.8046134,0 16.5864016,0.121150044 16.4581503,0.321658062 C15.7167838,1.48807942 14.761819,2.13045639 13.7699473,2.13045639 C12.7776142,2.13045639 11.822188,1.48807942 11.0803603,0.321658062 C10.8252417,-0.0793579745 10.1733743,-0.0793579745 9.91825571,0.321658062 C9.17735062,1.48807942 8.22238576,2.13045639 7.23051406,2.13045639 C6.23818102,2.13045639 5.28321617,1.48807942 4.54184974,0.321658062 C4.28580844,-0.0793579745 3.63440246,-0.0793579745 3.37928383,0.321658062 C2.63884007,1.48760984 1.68433656,2.12998682 0.692003515,2.12998682 C0.310017575,2.12998682 0,2.44507085 0,2.83434754 C0,3.22362423 0.310017575,3.53870826 0.692003515,3.53870826 L0.692003515,3.53870826 Z M20.3079965,17.3033255 C19.3161248,17.3033255 18.3616213,16.6604789 17.6207162,15.4945271 C17.4933875,15.2935495 17.2742531,15.1723995 17.0394332,15.1723995 C16.8046134,15.1723995 16.5859402,15.2935495 16.4581503,15.4945271 C15.7167838,16.6609485 14.761819,17.3042646 13.7699473,17.3042646 C12.7776142,17.3042646 11.822188,16.6614181 11.0808216,15.4945271 C10.8247803,15.0930415 10.1733743,15.0930415 9.91825571,15.4945271 C9.17735062,16.6609485 8.22238576,17.3042646 7.23051406,17.3042646 C6.23818102,17.3042646 5.28321617,16.6614181 4.54184974,15.4945271 C4.28673111,15.0921024 3.63440246,15.0930415 3.37928383,15.4945271 C2.63884007,16.6600093 1.68433656,17.3033255 0.692003515,17.3033255 C0.310017575,17.3033255 0,17.6188791 0,18.0076862 C0,18.3964933 0.310017575,18.7120469 0.692003515,18.7120469 C1.90208699,18.7120469 3.03789543,18.1278971 3.96056678,17.049286 C4.88462214,18.1288362 6.02043058,18.7129861 7.23051406,18.7129861 C8.4401362,18.7129861 9.57594464,18.1288362 10.4995387,17.049286 C11.423594,18.1288362 12.5598638,18.7129861 13.7699473,18.7129861 C14.9795694,18.7129861 16.1153779,18.1288362 17.0394332,17.049286 C17.9625659,18.1278971 19.0983743,18.7120469 20.3079965,18.7120469 C20.6899824,18.7120469 21,18.3964933 21,18.0076862 C21,17.6188791 20.6899824,17.3033255 20.3079965,17.3033255 L20.3079965,17.3033255 Z M20.3079965,9.71689093 C19.3161248,9.71689093 18.3616213,9.07451395 17.6207162,7.90903174 C17.4933875,7.70805415 17.2742531,7.58690411 17.0394332,7.58690411 C16.8046134,7.58690411 16.5864016,7.70805415 16.4586116,7.90856217 C15.7167838,9.07498352 14.761819,9.71689093 13.7699473,9.71689093 C12.7776142,9.71783007 11.822188,9.07498352 11.0803603,7.90856217 C10.8252417,7.50754613 10.1733743,7.50754613 9.91825571,7.90903174 C9.17735062,9.07498352 8.22238576,9.71689093 7.23051406,9.71689093 C6.23818102,9.71783007 5.28321617,9.07498352 4.5413884,7.90856217 C4.28626977,7.50754613 3.63440246,7.50754613 3.37928383,7.90903174 C2.63884007,9.07451395 1.68433656,9.71689093 0.692003515,9.71689093 C0.310017575,9.71689093 0,10.0324445 0,10.4212516 C0,10.8100588 0.310017575,11.1256124 0.692003515,11.1256124 C1.90208699,11.1256124 3.03789543,10.5414625 3.96056678,9.46238192 C4.88462214,10.5419321 6.02089192,11.1256124 7.23051406,11.1256124 C8.4401362,11.1256124 9.57594464,10.5424017 10.4995387,9.46238192 C11.423594,10.5424017 12.5598638,11.1256124 13.7699473,11.1256124 C14.9795694,11.1256124 16.1153779,10.5424017 17.0394332,9.46238192 C17.9625659,10.540993 19.0983743,11.1256124 20.3079965,11.1256124 C20.6899824,11.1256124 21,10.8100588 21,10.4212516 C21,10.0324445 20.6899824,9.71689093 20.3079965,9.71689093 L20.3079965,9.71689093 Z" id="Shape"></path>
                </g>
                <g id="camping-blk-large" transform="translate(0.000000, 2.000000)" fill="#333333">
                    <g id="Group-11">
                        <path d="M25.376,18.187443 L23.1226667,18.187443 L23.1226667,18.0863903 C23.1226667,17.1095482 22.36,16.267443 21.3893333,16.1663903 L13.4506667,6.43165349 L14.5946667,5.05060086 C14.768,4.8484956 14.7333333,4.51165349 14.5253333,4.34323244 C14.3173333,4.17481139 13.9706667,4.2084956 13.7973333,4.41060086 L12.7573333,5.69060086 L11.7173333,4.41060086 C11.544,4.17481139 11.1973333,4.14112718 10.9893333,4.34323244 C10.7813333,4.51165349 10.712,4.8484956 10.92,5.05060086 L12.064,6.43165349 L4.056,16.1327061 C3.08533333,16.267443 2.32266667,17.075864 2.32266667,18.0527061 L2.32266667,18.1537588 L0.52,18.1537588 C0.242666667,18.1537588 1.77635684e-15,18.3895482 1.77635684e-15,18.6590219 C1.77635684e-15,18.9284956 0.242666667,19.1642851 0.52,19.1642851 L2.84266667,19.1642851 L7.10666667,19.1642851 L12.7226667,19.1642851 L22.6026667,19.1642851 L25.376,19.1642851 C25.6533333,19.1642851 25.896,18.9284956 25.896,18.6590219 C25.896,18.3895482 25.6533333,18.187443 25.376,18.187443 L25.376,18.187443 Z M8.528,16.0990219 L5.408,16.0990219 L12.2026667,7.77902191 L12.2026667,11.5853377 L8.528,16.0990219 L8.528,16.0990219 Z M3.36266667,18.0527061 C3.36266667,17.547443 3.81333333,17.1095482 4.33333333,17.1095482 L7.696,17.1095482 L6.82933333,18.187443 L3.36266667,18.187443 L3.36266667,18.0527061 L3.36266667,18.0527061 Z M8.18133333,18.187443 L12.2026667,13.235864 L12.2026667,16.6379693 L12.2026667,18.187443 L8.18133333,18.187443 L8.18133333,18.187443 Z M13.2426667,18.187443 L13.2426667,16.6379693 L13.2426667,11.787443 L13.2426667,7.77902191 L17.16,12.5621798 C16.8826667,12.5621798 16.6746667,12.7979693 16.6746667,13.067443 C16.6746667,13.3369167 16.9173333,13.5727061 17.1946667,13.5727061 L17.992,13.5727061 L18.616,14.347443 L16.5706667,14.347443 C16.2933333,14.347443 16.0506667,14.5832324 16.0506667,14.8527061 C16.0506667,15.1221798 16.2933333,15.3579693 16.5706667,15.3579693 L19.448,15.3579693 L20.0373333,16.0990219 L15.1493333,16.0990219 C14.872,16.0990219 14.6293333,16.3348114 14.6293333,16.6042851 C14.6293333,16.8737588 14.872,17.1095482 15.1493333,17.1095482 L21.112,17.1095482 C21.632,17.1095482 22.0826667,17.547443 22.0826667,18.0527061 L22.0826667,18.1537588 L13.2426667,18.1537588 L13.2426667,18.187443 Z" id="Shape"></path>
                        <path d="M6.474,6.33263158 C6.92466667,6.33263158 7.37533333,6.23157895 7.79133333,6.06315789 C7.96466667,5.99578947 8.10333333,5.79368421 8.10333333,5.59157895 C8.10333333,5.38947368 7.96466667,5.22105263 7.79133333,5.12 C6.994,4.78315789 6.474,4.00842105 6.474,3.16631579 C6.474,2.32421053 6.994,1.54947368 7.79133333,1.21263158 C7.96466667,1.14526316 8.10333333,0.943157895 8.10333333,0.741052632 C8.10333333,0.538947368 7.99933333,0.370526316 7.79133333,0.269473684 C7.37533333,0.101052632 6.92466667,-4.4408921e-16 6.474,-4.4408921e-16 C4.706,-4.4408921e-16 3.25,1.41473684 3.25,3.13263158 C3.25,4.91789474 4.706,6.33263158 6.474,6.33263158 L6.474,6.33263158 Z M6.30066667,1.07789474 C5.746,1.65052632 5.434,2.39157895 5.434,3.2 C5.434,4.00842105 5.746,4.74947368 6.30066667,5.32210526 C5.19133333,5.22105263 4.29,4.31157895 4.29,3.2 C4.29,2.08842105 5.15666667,1.14526316 6.30066667,1.07789474 L6.30066667,1.07789474 Z" id="Shape"></path>
                    </g>
                </g>
                <path d="M248.33562,17.9283811 L245.159573,12.7579501 C244.477905,11.6495791 243.536923,11.0390279 242.509918,11.0390279 L242.509918,11.0390279 C241.511794,11.0390279 240.594725,11.6157286 239.918336,12.6654047 L239.108098,11.3470985 C239.097228,11.327223 239.085427,11.307658 239.072384,11.2887142 L235.033616,4.71892218 C234.351947,3.61055122 233.410965,3 232.38396,3 C231.356644,3 230.415973,3.61024067 229.733994,4.71892218 L225.912924,10.9346814 C225.894291,10.9604575 225.877832,10.9868547 225.863857,11.0144941 L221.614221,17.9280705 C220.926342,19.0466898 220.812058,20.1361169 221.292486,20.9960438 C221.772604,21.8547285 222.758927,22.3280144 224.070401,22.3280144 L239.143501,22.3280144 L240.696897,22.3280144 L245.879129,22.3280144 C247.190293,22.3280144 248.176926,21.8550391 248.657044,20.9960438 C249.137783,20.1361169 249.023499,19.0466898 248.33562,17.9283811 Z M230.779943,5.36208168 C231.229627,4.6310351 231.799495,4.22793465 232.38396,4.22793465 C232.968114,4.22793465 233.537982,4.63072455 233.987666,5.36208168 L237.877058,11.6893302 L237.702215,12.0952256 C237.314021,12.9964564 236.973653,13.1976961 236.911852,13.1992488 C236.849741,13.1868266 236.549745,12.9293765 236.323972,11.9744197 L236.263724,11.7197646 C236.013727,10.6617035 235.431126,8.86017372 234.337041,8.68377846 C234.117789,8.64837518 233.562516,8.64030075 233.140782,9.32600629 C232.985505,9.57848755 232.828364,9.68531848 232.741719,9.67941794 C232.63023,9.67165406 232.437996,9.49836434 232.279613,9.13625716 C231.927754,8.33285125 231.351364,8.20024425 231.039256,8.19248037 C230.217838,8.17260485 229.391762,8.91265753 228.71382,10.2766153 C228.468171,10.7710189 228.155132,11.0725679 227.808552,11.1477222 C227.616319,11.1896471 227.428122,11.1579705 227.257628,11.0912012 L230.779943,5.36208168 Z M242.403087,20.3966726 C242.1534,20.8435613 241.531669,21.0997692 240.696897,21.0997692 L239.143501,21.0997692 L224.070401,21.0997692 C223.23594,21.0997692 222.614209,20.8435613 222.364212,20.3966726 C222.113904,19.9491628 222.221978,19.2836433 222.660171,18.5709195 L226.610431,12.145225 C227.090239,12.3793835 227.592406,12.4514323 228.07035,12.3477069 C228.575002,12.238081 229.286794,11.8843588 229.814117,10.8231922 C230.419389,9.60550583 230.942053,9.40612949 231.012549,9.42010447 C231.025592,9.42507335 231.087703,9.47507271 231.155094,9.62879746 C231.491425,10.3964895 232.038933,10.8610799 232.656938,10.9039365 C233.239228,10.9443086 233.796675,10.6033192 234.187042,9.96885524 C234.19108,9.96233358 234.194806,9.95612248 234.198844,9.95053249 C234.376481,10.1247539 234.757843,10.6849952 235.069019,12.001438 L235.129266,12.2564037 C235.531435,13.9604192 236.262171,14.3746997 236.80409,14.4222146 C236.839804,14.4253202 236.876449,14.4271835 236.914026,14.4271835 C237.401908,14.4271835 238.053763,14.1414728 238.654998,12.9551526 L239.404988,14.1750128 C239.431075,14.2405399 239.468342,14.3017192 239.515856,14.3554453 L242.107438,18.5715406 C242.545632,19.2836433 242.653394,19.9491628 242.403087,20.3966726 Z M247.585319,20.3966726 C247.335633,20.8432507 246.713901,21.0997692 245.87944,21.0997692 L243.412701,21.0997692 C243.43413,21.0656082 243.455247,21.0311365 243.475123,20.9960438 C243.955551,20.1361169 243.841578,19.0466898 243.153388,17.9280705 L240.67609,13.8979977 L240.923292,13.3734702 C241.370491,12.6598147 241.932906,12.2669626 242.509918,12.2669626 C243.094072,12.2669626 243.66394,12.6697525 244.113624,13.4007991 L247.28967,18.5709195 C247.727553,19.2836433 247.835626,19.9491628 247.585319,20.3966726 Z" id="Shape" fill="#000000"></path>
            </g>
        </g>
    </g>
</svg>