<?xml version="1.0" encoding="UTF-8"?>
<svg width="75px" height="32px" viewBox="0 0 75 32" version="1.1" xmlns="http://www.w3.org/2000/svg" xmlns:xlink="http://www.w3.org/1999/xlink">
    <!-- Generator: Sketch 42 (36781) - http://www.bohemiancoding.com/sketch -->
    <title>logo</title>
    <desc>Created with Sketch.</desc>
    <defs>
        <polygon id="path-1" points="45.3351266 15.3254533 45.3351266 0.648048386 0.381361024 0.648048386 0.381361024 15.3254533 45.3351266 15.3254533"></polygon>
    </defs>
    <g id="Blog" stroke="none" stroke-width="1" fill="none" fill-rule="evenodd">
        <g id="Mobile-Portrait" transform="translate(-150.000000, -14.000000)">
            <g id="logo" transform="translate(150.000000, 14.000000)">
                <g id="Group-2">
                    <path d="M9.15484177,11.8781513 C10.0643354,11.8169208 10.8703481,11.7547483 11.6773101,11.715184 C11.8700316,11.7048219 11.9564241,11.6228672 12.0219304,11.466494 C12.1311076,11.1980218 12.2440823,10.9295496 12.3637025,10.6648455 C13.3121203,8.55286429 14.2624367,6.44088313 15.2108544,4.32795996 C15.2507278,4.24035325 15.2687658,4.14332646 15.2972468,4.05100971 C15.2849051,4.04629968 15.2706646,4.04253165 15.2583228,4.03782161 C13.2361709,6.63493671 11.214019,9.23205181 9.15484177,11.8781513 L9.15484177,11.8781513 Z M11.9288924,21.2643156 C11.8026266,21.2059111 11.6754114,21.1465646 11.5481962,21.0881601 C11.3801582,21.0109155 11.1950316,20.9581631 11.0516772,20.8498322 C10.9349051,20.7650515 10.849462,20.6228084 10.7801582,20.4899853 C10.0292089,19.0242214 10.2000949,17.505705 10.557057,15.9890727 C10.7374367,15.2279305 10.9909177,14.4846865 11.2092722,13.7339064 C11.2586392,13.569055 11.3051582,13.4051457 11.3554747,13.2289903 C11.3554747,13.2289903 11.3298418,13.2120341 11.3051582,13.2148602 C10.7545253,13.2921048 10.2010443,13.3750015 9.64946203,13.4484781 C9.5203481,13.4673182 9.3589557,13.4117398 9.25927215,13.4701442 C8.85579114,13.7065882 8.3953481,13.6274595 7.97098101,13.7329644 C7.87794304,13.7565146 7.77731013,13.8196291 7.71275316,13.8931057 C7.33300633,14.3349073 6.9589557,14.7833029 6.59060127,15.2345246 C6.09882911,15.8345835 5.62984177,16.4544245 5.12003165,17.0394112 C4.60072785,17.6357021 4.04724684,18.2018487 3.50420886,18.7783574 C3.27920886,19.0157433 3.04471519,19.2427671 2.81686709,19.476385 C2.49882911,19.8013777 1.78870253,19.9954313 1.4839557,19.4283427 C1.45452532,19.3737062 1.39566456,19.3331999 1.34629747,19.2889255 C1.04060127,19.0100913 1.01591772,18.7208949 1.28174051,18.3968443 C1.59313291,18.0190992 1.94344937,17.6733824 2.27193038,17.3088254 C2.6146519,16.9273123 2.94977848,16.5382632 3.2925,16.1567501 C3.55167722,15.8703797 3.83174051,15.6028496 4.07572785,15.3042331 C4.38617089,14.9236621 4.66623418,14.5195408 5.00705696,14.0654931 C4.55705696,14.173824 4.16591772,14.2727348 3.77382911,14.3603415 C3.40927215,14.4422961 3.03617089,14.5930174 2.67825949,14.5628731 C2.27667722,14.5280188 1.96243671,14.6297557 1.63775316,14.8181572 C1.59882911,14.8407654 1.48490506,14.7729408 1.43079114,14.7220724 C1.3425,14.6429438 1.37287975,14.6843921 1.24566456,14.7701148 C1.10041139,14.8699676 0.887753165,14.8756197 0.632373418,14.9387342 C0.687436709,14.8313453 0.705474684,14.797433 0.707373418,14.790839 C0.530791139,14.7041743 0.345664557,14.6306977 0.187120253,14.5204828 C0.154841772,14.4978746 0.219398734,14.3358493 0.237436709,14.2473006 C0.0295253165,14.2228084 -0.0492721519,14.1050574 0.0314240506,13.8318752 C0.116867089,13.5483309 0.312436709,13.3947836 0.595348101,13.3476832 C1.32351266,13.2233382 2.07161392,13.1705858 2.77699367,12.9652281 C3.41212025,12.7805946 4.06433544,12.7155961 4.70041139,12.5563968 C5.22920886,12.4254578 5.77889241,12.3821254 6.31813291,12.2935767 C6.39218354,12.2813306 6.48237342,12.2568384 6.52509494,12.20597 C6.81844937,11.8611952 7.11844937,11.5201884 7.38332278,11.1528054 C8.22446203,9.98659994 9.02667722,8.79213424 9.89060127,7.64382691 C10.4915506,6.84594642 11.1675,6.10552841 11.8130696,5.33967618 C12.9257278,4.01803945 14.045981,2.70299676 15.1481962,1.37288195 C15.5061076,0.940500442 15.8668671,0.517539005 16.3415506,0.205734472 C16.4526266,0.132257875 16.5703481,0.0682013541 16.6852215,0.000376803062 L16.8618038,0.000376803062 C17.3535759,0.319717398 17.9175,0.586305564 18.1519937,1.15527819 C18.2773101,1.45954666 18.5118038,1.77135119 18.3428165,2.16511039 C18.1358544,2.65212835 18.0352215,3.19001472 17.785538,3.65065646 C16.5361709,5.94350309 15.5146519,8.33620253 14.5576899,10.7571622 C14.4589557,11.0067942 14.3507278,11.2526582 14.232057,11.5352605 C14.6450316,11.5559847 15.020981,11.5748248 15.4026266,11.593665 C15.3219304,11.8838034 15.1301582,11.8913394 14.9118038,11.8903974 C14.7456646,11.8903974 14.5766772,11.9431498 14.4133861,12.0401766 C14.5035759,12.0467707 14.5956646,12.0373506 14.6811076,12.0609008 C14.8187658,12.0995231 14.9478797,12.1701737 15.0864873,12.20597 C15.2127532,12.2398822 15.3456646,12.2455343 15.460538,12.2606064 C15.1472468,12.3143009 14.8168671,12.3708213 14.4864873,12.4282838 C14.4883861,12.4358198 14.4912342,12.4433559 14.4931329,12.450892 L15.6637025,12.450892 C15.6656013,12.4678481 15.6656013,12.4829202 15.6675,12.4998764 C15.5222468,12.5441507 15.3788924,12.6195113 15.2307911,12.6251634 C15.0807911,12.6317574 14.9298418,12.5535708 14.7788924,12.5441507 C14.6241456,12.5347306 14.4665506,12.5677009 14.3108544,12.579947 C14.1513608,12.5921931 13.9909177,12.6016132 13.8323734,12.6110333 L13.8323734,12.6929879 C13.9481962,12.700524 14.064019,12.7080601 14.1788924,12.7146541 C13.7099051,12.6411775 13.6045253,12.9784162 13.4906013,13.3081189 C13.1374367,14.3311392 12.7500949,15.3437975 12.4396519,16.3800059 C12.2678165,16.9574566 12.2260443,17.5725876 12.1254114,18.1717044 C12.0608544,18.5569856 11.9611709,18.9413247 11.9364873,19.3303739 C11.9146519,19.6534825 11.9440823,19.9888372 12.0133861,20.3062938 C12.0836392,20.6359965 12.0731962,20.946859 11.9887025,21.2643156 L11.9288924,21.2643156 Z" id="Fill-1" fill="#333333"></path>
                    <g id="Group-5" transform="translate(29.430380, 3.296179)">
                        <mask id="mask-2" fill="white">
                            <use xlink:href="#path-1"></use>
                        </mask>
                        <g id="Clip-4"></g>
                        <path d="M38.0864241,9.57042096 C38.1035127,9.59773918 38.1206013,9.6250574 38.1386392,9.65143362 C38.2297785,9.61375331 38.3332595,9.59020312 38.412057,9.53462467 C39.1174367,9.0344186 39.5218671,8.30436267 39.8997152,7.56111863 C40.0592089,7.25025611 40.1731329,6.9167854 40.3069937,6.59273477 C40.2785127,6.57860465 40.2500316,6.56447454 40.2215506,6.55034442 C39.3747152,7.46314984 38.6066772,8.4305917 38.0864241,9.57042096 M3.25794304,9.59114513 C3.85794304,9.69664999 5.40920886,7.48764204 5.42724684,6.52396821 C4.55762658,7.46409185 3.79528481,8.42776568 3.25794304,9.59114513 M19.6031962,12.5773094 C19.3478165,12.8194054 19.119019,13.0426612 18.8807278,13.2564969 C18.332943,13.7501089 17.7956013,14.257851 17.2231329,14.7222608 C16.8775633,15.0039211 16.4465506,15.0613836 16.0003481,14.9558787 C15.8921203,14.9313865 15.7753481,14.9285605 15.6642722,14.9257345 C15.4041456,14.9200824 15.1373734,14.6751604 15.0376899,14.3482838 C14.9721835,14.1419841 14.9000316,13.9375684 14.844019,13.7293848 C14.8098418,13.5993877 14.7984494,13.4646806 14.7699684,13.3026553 C14.7130063,13.3572917 14.6636392,13.4034501 14.6133228,13.4496085 C14.1462342,13.8753959 13.7047785,14.3350957 13.2006646,14.7100147 C13.0136392,14.8503739 12.6766139,14.8155196 12.4088924,14.8239976 C12.1876899,14.8305917 11.9617405,14.7816073 11.6987658,14.7533471 C11.6066772,14.6525523 11.4927532,14.4613247 11.3247152,14.3520518 C10.729462,13.9601766 10.6876899,13.3657698 10.8386392,12.8024492 C11.1604747,11.6089255 11.5658544,10.437068 11.9493987,9.26050044 C12.0614241,8.91572564 12.2161709,8.58508095 12.3101582,8.21863998 C12.0168038,8.57471887 11.7310443,8.93644981 11.4319937,9.28593465 C10.457943,10.4172858 9.58262658,11.6155196 8.81838608,12.894766 C8.60193038,13.2574389 8.39971519,13.6276479 8.18800633,13.9922049 C8.03800633,14.249373 7.59655063,14.4782808 7.40193038,14.3087195 C7.21015823,14.1429261 6.82186709,14.1146659 6.8531962,13.7030085 C6.87787975,13.3610598 6.81996835,13.0134589 6.79908228,12.648902 C5.87914557,13.6116338 4.80920886,14.3982102 3.45636076,14.745811 C3.47439873,14.7863173 3.49053797,14.8277657 3.50762658,14.868272 C3.75351266,14.7957374 4.03262658,14.7703032 4.24528481,14.6403062 C4.95161392,14.2107507 5.63231013,13.7435149 6.32344937,13.2894672 C6.3946519,13.2433088 6.45825949,13.1886724 6.52471519,13.1378039 C6.5389557,13.1566441 6.55414557,13.1764263 6.56933544,13.1952664 C6.20382911,13.4854048 5.8639557,13.8198175 5.46427215,14.0543774 C4.91458861,14.377486 4.34306962,14.7768973 3.73927215,14.869214 C2.80699367,15.0123992 1.83484177,14.872982 1.00414557,14.3558198 C0.46585443,14.0204651 0.316803797,13.4232323 0.405094937,12.8391875 C0.498132911,12.2165205 0.705094937,11.6089255 0.879778481,10.9994466 C1.38389241,9.24637033 2.41870253,7.79567854 3.57882911,6.4250574 C3.79908228,6.16506329 4.09433544,5.96629968 4.36775316,5.75811598 C4.62598101,5.5631204 4.8975,5.38696497 5.17091772,5.21457757 C5.47566456,5.02335001 5.77756329,5.06103032 6.06427215,5.26356197 C6.10224684,5.28993818 6.14591772,5.31443038 6.19053797,5.32479246 C6.64813291,5.43406535 6.86268987,5.6620312 6.85414557,6.15752723 C6.8475,6.56918457 6.82186709,7.0025081 6.6918038,7.38778923 C6.32629747,8.45790992 5.7889557,9.44324993 5.01996835,10.2919988 C4.65161392,10.6961201 4.20920886,10.9542302 3.66901899,10.9419841 C3.4003481,10.9353901 3.13737342,10.7677127 2.80889241,10.6499617 C2.58199367,10.7771328 2.53262658,11.0748072 2.48231013,11.3997998 C2.4225,11.7973271 2.26490506,12.1797822 2.2003481,12.5763674 C2.13294304,12.9917928 2.20414557,13.4034501 2.39496835,13.8094554 C3.08420886,13.6587342 3.70414557,13.385552 4.26806962,12.9983868 C5.24117089,12.3286194 6.11079114,11.5363909 6.92629747,10.681048 C7.15889241,10.436126 7.42946203,10.2213482 7.63262658,9.95476008 C7.85952532,9.65708566 8.0389557,9.32173094 8.21933544,8.99202826 C8.39117089,8.67928172 8.52598101,8.34769503 8.69781646,8.03494848 C9.07851266,7.34068884 9.4725,6.65396526 9.85699367,5.96158964 C10.0174367,5.67521931 10.3668038,5.57254048 10.6573101,5.73833382 C10.7845253,5.80992641 10.9411709,5.85702679 11.0304114,5.96064763 C11.3883228,6.37042096 11.3636392,6.36853694 11.0588924,6.95634972 C10.7047785,7.64118928 10.3800949,8.34204298 10.0449684,9.03818664 C10.0136392,9.10601119 10.0012975,9.18231381 10.0193354,9.27745658 C10.2756646,8.93456579 10.5006646,8.56153076 10.794019,8.25537827 C11.5459177,7.47539594 12.3168038,6.71236974 13.1076266,5.97289373 C13.3098418,5.78260818 13.607943,5.67804533 13.8785127,5.58101855 C13.9743987,5.54616426 14.1187025,5.66485723 14.2459177,5.68181336 C14.6171203,5.73173977 14.7538291,6.03883427 14.8212342,6.30730645 C14.8819937,6.54846041 14.8212342,6.85084486 14.7281962,7.09388284 C14.5326266,7.60821902 14.2592089,8.09335296 14.0560443,8.60580512 C13.5338924,9.92932588 12.9899051,11.2462526 12.7126899,12.650786 C12.6652215,12.893824 12.6215506,13.139688 12.5693354,13.4194642 C13.0335759,13.0068649 13.4968671,12.6347719 13.9145886,12.2184045 C14.4130063,11.7238505 14.8800949,11.1972682 15.3490823,10.6725699 C15.462057,10.5463409 15.5342089,10.3796055 15.6063608,10.2222903 C16.0943354,9.14745952 16.5500316,8.05661466 17.0674367,6.99685605 C17.4547785,6.20462761 17.9199684,5.4519635 18.3452848,4.67951722 C18.4316772,4.52125994 18.4943354,4.34981454 18.5873734,4.14351487 C17.750981,4.26974389 16.9202848,4.31307624 16.1475,4.54292611 C15.7383228,4.66538711 15.5019304,4.26597586 15.1506646,4.49017368 C15.1743987,4.08793641 15.4031962,3.9259111 15.6937025,3.87221666 C16.4114241,3.74033559 17.1367405,3.63671475 17.8592089,3.52178981 C18.1383228,3.47751545 18.4221835,3.45113924 18.6956013,3.38048867 C18.8180696,3.34846041 18.9585759,3.25049161 19.0212342,3.14121872 C19.4038291,2.48934943 19.7588924,1.82052399 20.1433861,1.16771269 C20.2468671,0.989673241 20.4092089,0.84554607 20.5525633,0.691998822 C20.5810443,0.663738593 20.6531962,0.637362379 20.6788291,0.652434501 C21.0054114,0.84554607 21.3395886,1.02735355 21.6443354,1.25155137 C21.8285127,1.39002649 21.8066772,1.59632617 21.6927532,1.80262585 C21.4050949,2.32826612 21.1335759,2.86144245 20.8354747,3.42947306 C21.4772468,3.39179276 22.0876899,3.33715631 22.6981329,3.32491021 C23.4490823,3.3107801 24.2019304,3.32867825 24.9547785,3.34375037 C25.054462,3.34563438 25.1541456,3.41063291 25.2728165,3.45302326 C25.0772468,3.84207242 24.7345253,3.82700029 24.4421203,3.86091257 C23.3180696,3.99373565 22.1845253,4.06250221 21.0680696,4.24054165 C20.7661709,4.28952605 20.4073101,4.40350898 20.2098418,4.83118045 C19.6383228,6.06144245 18.9319937,7.22953194 18.350981,8.4550839 C17.6997152,9.82758905 17.1243987,11.2349485 16.5281962,12.6328878 C16.429462,12.8674477 16.4047785,13.1330939 16.3449684,13.3846099 C16.3696519,13.4034501 16.3943354,13.4222903 16.419019,13.4411304 C16.625981,13.3064233 16.8262975,13.1688902 17.0361076,13.0398351 C18.2617405,12.2758669 19.1740823,11.16995 20.1823101,10.1723639 C20.4433861,9.91519576 20.6285127,9.56853694 20.7899051,9.23412423 C21.154462,8.47580807 21.4886392,7.70336179 21.8228165,6.93091551 C21.9063608,6.73780394 21.9395886,6.52396821 22.0069937,6.32143656 C22.082943,6.09441272 22.1949684,5.93050339 22.4797785,5.89659111 C22.7531962,5.86550486 23.0066772,5.70065352 23.2962342,5.78920224 C23.4149051,5.82594054 23.5297785,5.86927289 23.6968671,5.92673535 C23.7614241,6.01622608 23.8867405,6.14999117 23.9636392,6.30636444 C24.0073101,6.39868119 24.0092089,6.54375037 23.9664873,6.63795113 C23.7861076,7.04395643 23.6104747,7.45655578 23.3816772,7.83712688 C22.6373734,9.07492493 22.1437025,10.4125758 21.7136392,11.7775449 C21.7345253,11.791675 21.7554114,11.8076891 21.7762975,11.8218193 C22.3506646,11.1228496 22.9392722,10.4333 23.4946519,9.72020018 C24.2541456,8.7508743 24.9937025,7.76741831 25.7313608,6.78396232 C25.8984494,6.56164851 26.0104747,6.29694436 26.1899051,6.08593465 C26.2800949,5.98042979 26.4813608,5.87963497 26.6000316,5.90695319 C26.919019,5.97854578 27.3149051,5.98796585 27.3842089,6.44201354 C27.3908544,6.48534589 27.482943,6.5107801 27.5047785,6.55882249 C27.5835759,6.72838387 27.7316772,6.91772741 27.7050949,7.0769267 C27.6376899,7.49235208 27.537057,7.9143715 27.3709177,8.29965263 C26.7158544,9.820995 26.0598418,11.3376273 25.7835759,13.0520812 C26.0550949,12.8693318 26.3256646,12.7431027 26.5231329,12.5471651 C27.1364241,11.9358022 27.7630063,11.3319753 28.3031962,10.6612658 C28.7873734,10.0612069 29.1680696,9.37919341 29.590538,8.72920812 C29.9683861,8.14233736 30.3376899,7.54981454 30.7126899,6.96011775 C30.8228165,6.78678834 30.8835759,6.62287901 30.8389557,6.39773918 C30.8000316,6.19897557 30.8465506,5.97289373 30.8978165,5.76847807 C30.9756646,5.45949956 31.0592089,5.144869 31.1987658,4.8613247 C31.2766139,4.70306741 31.4731329,4.6032146 31.6202848,4.4798116 C31.654462,4.45155137 31.7076266,4.44401531 31.7389557,4.41292906 C32.1319937,4.03141596 32.4965506,3.9748955 32.9702848,4.25090374 C33.0433861,4.29329408 33.1193354,4.42800118 33.1050949,4.50147777 C33.012057,4.95269944 32.9028797,5.40015308 32.7842089,5.84383868 C32.7376899,6.00963203 32.6475,6.16412128 32.5781962,6.32332058 C32.4804114,6.54280836 32.6066772,6.64831322 32.7937025,6.65679129 C33.0728165,6.66903739 33.3557278,6.65208125 33.6348418,6.62382102 C33.9728165,6.59085075 34.307943,6.52867825 34.6459177,6.49099794 C34.7038291,6.48440389 34.7949684,6.51172211 34.8225,6.55505446 C34.9943354,6.80939653 35.1642722,7.06750662 35.3095253,7.33692081 C35.3427532,7.40003533 35.3000316,7.52720636 35.2573101,7.60350898 C34.4465506,9.00992641 33.6035127,10.3984457 32.8288291,11.8237033 C32.582943,12.279635 32.5107911,12.8297674 32.3380063,13.4109862 C32.9209177,13.1189638 33.4326266,12.9192582 33.8218671,12.4783986 C34.287057,11.9499323 34.8395886,11.4968266 35.3104747,10.9730704 C35.6256646,10.6226435 35.9209177,10.2317103 36.1250316,9.81157492 C36.687057,8.64913747 37.3990823,7.58843686 38.2497152,6.62287901 C38.5952848,6.23100383 39.0035127,5.88905505 39.407943,5.55181631 C39.6025633,5.38884898 39.8446519,5.27392405 40.0791456,5.16841919 C40.2035127,5.11284074 40.3706013,5.0836385 40.5006646,5.11472476 C40.7750316,5.18066529 41.0531962,5.26638799 41.3019304,5.39826906 C41.582943,5.54804828 41.6835759,5.84949073 41.6702848,6.14245511 C41.6522468,6.56541654 41.6389557,7.00721813 41.5041456,7.40097733 C41.1348418,8.4805181 40.5908544,9.47151016 39.8066772,10.3230851 C39.4421203,10.7206123 38.9968671,10.9532882 38.4709177,10.9438681 C38.2136392,10.9391581 37.9582595,10.7714807 37.6278797,10.6499617 C37.4114241,10.7724227 37.3506646,11.057851 37.3022468,11.3847277 C37.2443354,11.7813129 37.0838924,12.162826 37.0212342,12.5584692 C36.9519304,12.9833147 37.0136392,13.4043921 37.2187025,13.8103974 C37.9288291,13.6455461 38.5649051,13.3629438 39.1430696,12.9588225 C40.0943354,12.2909391 40.9611076,11.5222608 41.7471835,10.6688019 C42.2313608,10.1403356 42.7107911,9.60621725 43.1560443,9.0466647 C43.5443354,8.55776273 43.8813608,8.02835443 44.2468671,7.52155431 C44.365538,7.35858699 44.5041456,7.20974978 44.6712342,7.07504268 C44.6019304,7.28793641 44.5307278,7.50177215 44.4604747,7.71466588 C44.4709177,7.72220194 44.4804114,7.728796 44.4918038,7.73539005 C44.6987658,7.47822196 44.9066772,7.22105387 45.1392722,6.9290315 C45.1136392,7.19656167 45.0908544,7.41604946 45.0671203,7.66097145 C45.1468671,7.59785693 45.2161709,7.54227848 45.2873734,7.48670003 C45.3025633,7.49235208 45.3196519,7.49988814 45.3357911,7.50648219 C45.304462,7.59785693 45.2854747,7.69582573 45.237057,7.77778039 C44.9911709,8.21016191 44.732943,8.63594937 44.4861076,9.06833088 C44.3304114,9.34057109 44.2202848,9.64389756 44.0342089,9.89164557 C43.7076266,10.3249691 43.3487658,10.7347424 42.987057,11.1398057 C42.4943354,11.6908802 41.9978165,12.2381866 41.4880063,12.771363 C40.6601582,13.632358 39.7088924,14.3106035 38.5459177,14.6666824 C38.4585759,14.6940006 38.3778797,14.7382749 38.2933861,14.7750132 C38.3047785,14.8070415 38.3142722,14.8381278 38.3237658,14.869214 C38.5649051,14.7995054 38.8345253,14.7768973 39.040538,14.6506682 C39.754462,14.2154607 40.4465506,13.7435149 41.1462342,13.2847571 C41.215538,13.2404828 41.2781962,13.1867883 41.3456013,13.1378039 C41.3617405,13.1594701 41.3788291,13.1811363 41.3949684,13.2037445 C40.9668038,13.5287371 40.5500316,13.8697439 40.1085759,14.1730704 C39.8114241,14.376544 39.4848418,14.5348013 39.162057,14.6958846 C38.7718671,14.8927642 38.3674367,14.989791 37.9174367,14.8946482 C37.4342089,14.7929114 36.9281962,14.7712452 36.4516139,14.6440742 C35.525981,14.3991522 35.1908544,13.8254695 35.207943,12.8297674 C35.207943,12.8024492 35.2031962,12.774189 35.1984494,12.7054224 C34.7161709,13.1952664 34.279462,13.6917044 33.7876899,14.124086 C33.4069937,14.4575567 32.9721835,14.7354489 32.5335759,14.992617 C32.2876899,15.1386282 31.9857911,15.1885546 31.7123734,15.2902914 C31.4750316,15.3778981 31.3098418,15.2940595 31.1399051,15.1244981 C31.0117405,14.996385 30.8256646,14.9257345 30.6747152,14.8145776 C30.5978165,14.7571151 30.5028797,14.6723344 30.4886392,14.5884957 C30.4516139,14.3313276 30.4145886,14.0647395 30.4430696,13.8085134 C30.5475,12.898534 30.7791456,12.0196409 31.2130063,11.2048042 C31.8281962,10.0517869 32.3607911,8.85072711 33.2038291,7.82959082 C33.2702848,7.74857816 33.3206013,7.65437739 33.3642722,7.58655284 C32.9446519,7.52532234 32.525981,7.46314984 32.0911709,7.40003533 C31.5196519,8.221466 30.9225,9.11543126 30.2911709,9.98396232 C29.8573101,10.5793112 29.3769304,11.1407477 28.9221835,11.7191404 C28.4598418,12.3041272 28.0212342,12.9088961 27.5342089,13.4722167 C27.1971835,13.8593818 26.815538,14.2135767 26.4168038,14.5376273 C25.9582595,14.9087783 25.1617405,14.9652988 24.7193354,14.5997998 C24.3547785,14.2992994 24.0424367,13.9045982 24.0073101,13.3780159 C23.9588924,12.6997704 24.2275633,12.0865234 24.4003481,11.4553783 C24.5456013,10.92597 24.7221835,10.4059817 24.8266139,9.84831322 C24.4535127,10.3645334 24.0775633,10.8779276 23.7054114,11.3950898 C23.2354747,12.0497851 22.7864241,12.7204946 22.2908544,13.3572917 C22.0269304,13.6992405 21.6908544,13.9903209 21.3756646,14.2917633 C21.3215506,14.3435737 21.2057278,14.3435737 21.1174367,14.3463998 C20.8364241,14.3558198 20.5554114,14.3605299 20.2743987,14.3529938 C20.2031962,14.3501678 20.1054114,14.3153135 20.0702848,14.2616191 C19.7797785,13.8377156 19.4645886,13.4194642 19.5804114,12.8533176 C19.5984494,12.769479 19.5965506,12.6809302 19.6031962,12.5773094" id="Fill-3" fill="#373435" mask="url(#mask-2)"></path>
                    </g>
                    <path d="M20.6797785,11.7664292 C20.5373734,11.5686076 20.3997152,11.4131763 20.3019304,11.2360789 C20.0930696,10.8564498 19.7361076,10.8545658 19.4731329,11.1748484 C19.1550949,11.5629555 18.8456013,11.9642508 18.575981,12.3862702 C17.9361076,13.3866824 17.3845253,14.4323109 17.132943,15.6041684 C17.0693354,15.8943067 17.0475,16.1919812 16.9971835,16.5546541 C18.5446519,15.1218605 19.4778797,13.3574801 20.6797785,11.7664292 M21.650981,16.8862408 C22.6022468,16.2296615 23.2307278,15.4091728 23.8468671,14.5839741 C24.3766139,13.8774684 24.8218671,13.098428 25.4180696,12.4569208 C25.8519304,11.991569 25.9468671,11.4301325 26.179462,10.9082602 C26.3389557,10.5465293 26.4443354,10.1603062 26.5743987,9.78538711 C26.6626899,9.52916102 26.890538,9.37372976 27.154462,9.38220783 C27.3386392,9.38880188 27.5209177,9.38691787 27.7050949,9.38220783 C27.9699684,9.37561378 28.3022468,9.77031498 28.2756646,10.021831 C28.1484494,11.2144127 27.6168038,12.2788814 27.2180696,13.3876244 C26.9114241,14.2429673 26.6171203,15.1020783 26.3161709,15.9602473 C26.337057,15.9724934 26.3569937,15.9837975 26.3797785,15.9960436 C26.6702848,15.5975743 26.975981,15.2085252 27.2522468,14.7987518 C28.0117405,13.6711687 28.7493987,12.5303974 29.515538,11.4065823 C29.6493987,11.2087607 29.900981,11.0900677 30.0490823,10.8969561 C30.650981,10.1094377 31.232943,9.30590521 31.8272468,8.51179276 C31.8975,8.41947601 31.9952848,8.34882543 32.1016139,8.24708861 C32.1234494,8.42795408 32.1386392,8.5541831 32.1547785,8.68041213 C32.2762975,8.59657345 32.4092089,8.52686488 32.5126899,8.42795408 C32.712057,8.23578452 32.8952848,8.02760082 33.1364241,7.85615543 C33.0376899,8.06810715 32.9351582,8.28005888 32.8421203,8.49389461 C32.3057278,9.71002649 31.4721835,10.7386989 30.7202848,11.8182396 C29.4718671,13.6108802 28.2149051,15.3988107 26.9531962,17.1829732 C26.6503481,17.6115867 26.3161709,18.0109979 25.7902215,18.2107036 C25.4892722,18.3256285 25.1959177,18.2568619 24.9519304,18.0354901 C24.5740823,17.6925994 24.3348418,17.3026082 24.3376899,16.788272 C24.3376899,16.5782043 24.3652215,16.3681366 24.3225,16.1232146 C24.1468671,16.3530645 23.9750316,16.5847984 23.7984494,16.8118222 C23.1785127,17.6078187 22.4380063,18.1607772 21.3471835,18.0694024 C20.8041456,18.023244 20.4975,17.7170916 20.3266139,17.2470297 C20.1595253,16.78733 20.2041456,16.3135001 20.2715506,15.8387283 C20.3161709,15.5306918 20.3247152,15.2170032 20.3503481,14.8835325 C20.0437025,15.2546835 19.7237658,15.6004004 19.4493987,15.9809714 C18.8512975,16.8118222 18.1174367,17.4891257 17.2183861,17.9827377 C16.8234494,18.1993995 16.4104747,18.2530939 15.9937025,18.018534 C15.9262975,17.9799117 15.8512975,17.9507094 15.7753481,17.9365793 C15.2085759,17.8263644 15.0832595,17.3939829 15.0414873,16.9229791 C14.9769304,16.2381395 15.1981329,15.6013424 15.4250316,14.9701972 C16.0022468,13.3574801 16.832943,11.8728761 17.8411709,10.4890668 C18.3215506,9.82871946 18.9956013,9.48394466 19.840538,9.61959376 C20.3456013,9.69966441 20.6503481,10.0868296 20.957943,10.4476185 C21.0452848,10.5484133 21.107943,10.6708743 21.2171203,10.8404357 C21.3804114,10.6237739 21.5503481,10.4513865 21.6547785,10.2460288 C21.8778797,9.80611127 22.0478165,9.33981749 22.2709177,8.89989991 C22.6012975,8.25650868 22.9630063,7.63007359 23.3019304,6.9904504 C23.5240823,6.57125699 23.7234494,6.1417015 23.9427532,5.72156609 C24.2740823,5.08759494 24.6111076,4.45833382 24.9490823,3.8281307 C25.0145886,3.70849573 25.0743987,3.58226671 25.1636392,3.48523992 C25.3164873,3.3232146 25.7484494,3.26386812 25.9060443,3.36183691 C26.1500316,3.51350015 26.1918038,3.7537121 26.1842089,4.07022667 C26.1747152,4.65615543 25.8975,5.13375331 25.662057,5.63772741 C25.090538,6.85762732 24.5218671,8.07752723 23.9949684,9.31626729 C23.4452848,10.6077598 22.9364241,11.9171504 22.4285127,13.2255991 C22.0478165,14.208113 21.6899051,15.2019311 21.5978165,16.2616897 C21.5807278,16.4510333 21.6272468,16.6460288 21.650981,16.8862408" id="Fill-6" fill="#333333"></path>
                    <path d="M16.5717722,26.1025611 C16.5717722,26.1025611 15.7686076,26.7553724 15.8094304,26.9993524 C15.8521519,27.2423903 16.0951899,27.2499264 16.4360127,27.2602885 C16.7777848,27.2706506 17.0758861,27.0869591 17.0758861,27.0869591 L17.1803165,29.9478363 C17.1803165,29.9478363 17.148038,30.9633206 17.6360127,30.9783927 C18.1239873,30.9934648 18.1201899,31.138534 18.1866456,29.0095967 L18.2531013,26.8816014 C18.2531013,26.8816014 20.194557,27.2329703 20.2676582,26.5085664 C20.3379114,25.7841625 17.3597468,25.8369149 16.5717722,26.1025611" id="Fill-8" fill="#333333"></path>
                    <path d="M26.1414873,25.917645 L26.1225,31.0977451 C26.1225,31.0977451 27.0262975,31.8532352 27.0633228,30.6917398 C27.1003481,29.5311863 27.1022468,26.3839388 27.1022468,26.3839388 C27.1022468,26.3839388 26.937057,25.4588873 26.1414873,25.917645" id="Fill-10" fill="#333333"></path>
                    <path d="M58.736962,26.5322108 C58.736962,26.5322108 58.9163924,27.0220548 59.2638608,26.8873477 C59.608481,26.7535826 60.0622785,26.2825787 59.4394937,25.9246158 C58.8167089,25.5666529 56.9255696,25.2162261 56.4936076,26.558587 C56.0578481,27.9009479 57.0622785,28.5132529 57.8379114,28.7308566 C58.6125949,28.9503444 59.1964557,30.5169031 57.8768354,30.5724816 C56.5581646,30.6280601 56.036962,30.127854 55.7796835,30.5555255 C55.5214557,30.9831969 56.6806329,31.358116 57.1667089,31.4221725 C57.6537342,31.485287 59.7508861,31.5022432 59.7233544,29.3224374 C59.6958228,27.1426317 57.2018354,28.6131057 57.5502532,27.0757492 C57.8322152,25.825705 58.736962,26.5322108 58.736962,26.5322108" id="Fill-12" fill="#333333"></path>
                    <path d="M45.9873418,27.0050044 L45.7518987,31.3071534 C45.7518987,31.3071534 46.321519,31.8083014 46.8237342,31.389108 C47.3240506,30.9680306 49.0594937,30.1032676 49.4933544,30.2624669 C49.9272152,30.4207242 50.4113924,29.0312629 49.0357595,29.3279953 C47.6601266,29.6228437 46.7572785,30.3707978 46.7572785,30.3707978 L46.8882911,29.3571975 C46.8882911,29.3571975 49.3993671,28.6619959 49.4098101,28.3219311 C49.4193038,27.9837504 49.2863924,27.5928172 48.4481013,27.8565793 C47.6098101,28.1203415 47.1683544,28.2041802 47.1683544,28.2041802 L46.9405063,27.6644098 L49.5009494,26.9692081 C49.5009494,26.9692081 50.9563291,27.2094201 50.3098101,26.1232853 C49.6585443,25.0380924 45.9873418,27.0050044 45.9873418,27.0050044" id="Fill-14" fill="#333333"></path>
                    <path d="M33.9885759,29.7947601 C33.9885759,29.7947601 33.9477532,31.1013247 34.3854114,31.1145128 C34.8230696,31.1286429 34.7585127,31.6580512 34.9066139,30.1141007 L35.0509177,28.5682661 C35.0509177,28.5682661 36.4787658,31.2765381 36.9667405,31.2916102 C37.4537658,31.3066824 37.6009177,31.3113924 36.9572468,30.032146 C36.3154747,28.7538416 35.3442722,27.0290256 35.3442722,27.0290256 C35.3442722,27.0290256 34.2534494,26.0257875 34.1271835,26.9423609 C34.0018671,27.8579923 33.9885759,29.7947601 33.9885759,29.7947601" id="Fill-16" fill="#333333"></path>
                    <path d="M40.1927848,29.9888137 C40.1927848,29.9888137 40.151962,31.2944363 39.7105063,31.2812482 C39.2728481,31.267118 39.3041772,31.8002944 39.2567089,30.2497498 L39.2082911,28.6982632 C39.2082911,28.6982632 37.6133544,31.3123344 37.1263291,31.2972623 C36.6364557,31.2821902 36.4921519,31.2765381 37.2127215,30.0406241 C37.9361392,28.80471 39.0136709,27.1439505 39.0136709,27.1439505 C39.0136709,27.1439505 40.1652532,26.211363 40.2336076,27.1335885 C40.301962,28.0548719 40.1927848,29.9888137 40.1927848,29.9888137" id="Fill-18" fill="#333333"></path>
                </g>
            </g>
        </g>
    </g>
</svg>