<?xml version="1.0" encoding="UTF-8"?>
<svg width="13px" height="17px" viewBox="0 0 13 17" version="1.1" xmlns="http://www.w3.org/2000/svg" xmlns:xlink="http://www.w3.org/1999/xlink">
    <!-- Generator: Sketch 43.2 (39069) - http://www.bohemiancoding.com/sketch -->
    <title>Shape</title>
    <desc>Created with Sketch.</desc>
    <defs></defs>
    <g id="Blog" stroke="none" stroke-width="1" fill="none" fill-rule="evenodd">
        <g id="Group-6-Copy" transform="translate(-70.000000, 0.000000)" fill="#D2D2D2">
            <path d="M70,6.07376494 C70,5.3631852 70.147259,4.65824498 70.4417771,3.95894428 C70.7362952,3.25964358 71.158623,2.61109858 71.7087605,2.01330927 C72.2588981,1.41551996 72.9813009,0.930521092 73.875969,0.558312655 C74.7706371,0.186104218 75.7625517,0 76.8517129,0 C78.6188214,0 80.069184,0.552673133 81.2028007,1.6580194 C82.3364174,2.76336567 82.9032258,4.0660952 82.9032258,5.56620799 C82.9032258,7.49492443 82.4225501,9.08808933 81.4611986,10.3457027 C80.4998472,11.603316 79.25787,12.2321227 77.7352672,12.2321227 C77.2351421,12.2321227 76.7655803,12.1136928 76.3265816,11.8768328 C75.887583,11.6399729 75.5791726,11.3523573 75.4013503,11.013986 L74.734517,13.6871193 C74.6789475,13.9014212 74.6067072,14.1185427 74.5177961,14.3384841 C74.428885,14.5584254 74.3316385,14.7699075 74.2260565,14.9729303 C74.1204746,15.1759531 74.0148926,15.3676968 73.9093107,15.5481615 C73.8037287,15.7286262 73.6981468,15.8978119 73.5925648,16.0557185 C73.4869829,16.2136251 73.3952933,16.3461538 73.317496,16.4533048 C73.2396988,16.5604557 73.1674585,16.6535078 73.1007752,16.7324611 L73.0007502,16.8678096 C72.9674085,16.9129258 72.922953,16.9298443 72.8673835,16.9185653 C72.8118141,16.9072863 72.7784724,16.8734491 72.7673585,16.8170539 C72.7673585,16.8057749 72.7590231,16.7268216 72.7423523,16.580194 C72.7256814,16.4335664 72.7090106,16.2784796 72.6923398,16.1149335 C72.6756689,15.9513873 72.6589981,15.7399053 72.6423272,15.4804873 C72.6256564,15.2210693 72.6200995,14.9701105 72.6256564,14.7276111 C72.6312134,14.4851117 72.6478842,14.2172344 72.6756689,13.9239792 C72.7034536,13.6307241 72.7451307,13.3600271 72.8007002,13.1118881 C72.922953,12.5817731 73.3341669,10.8166028 74.0343419,7.81637717 C73.9454308,7.63591247 73.8731905,7.41879089 73.8176211,7.16501241 C73.7620516,6.91123393 73.7342669,6.70539138 73.7342669,6.54748477 L73.7175961,6.29370629 C73.7175961,5.57184751 73.8981968,4.97123844 74.2593982,4.49187909 C74.6205996,4.01251974 75.0568198,3.77284006 75.5680587,3.77284006 C75.9792726,3.77284006 76.2987969,3.91100835 76.5266317,4.18734491 C76.7544664,4.46368148 76.8683838,4.81051207 76.8683838,5.22783668 C76.8683838,5.48725468 76.8211497,5.80588766 76.7266817,6.18373562 C76.6322136,6.56158358 76.5071824,6.99582675 76.3515879,7.48646515 C76.1959934,7.97710354 76.0848545,8.37468983 76.0181712,8.679224 C75.9070323,9.18678096 76.0042788,9.62666366 76.3099108,9.9988721 C76.6155428,10.3710805 77.0239782,10.5571848 77.5352171,10.5571848 C78.4132144,10.5571848 79.1383957,10.0524476 79.710761,9.04297316 C80.2831263,8.03349876 80.569309,6.8125423 80.569309,5.38010377 C80.569309,4.28603654 80.2192215,3.39217234 79.5190464,2.69851117 C78.8188714,2.00484999 77.8408491,1.6580194 76.5849796,1.6580194 C75.1846295,1.6580194 74.0482343,2.11482066 73.1757939,3.02842319 C72.3033536,3.94202572 71.8671335,5.03609294 71.8671335,6.31062486 C71.8671335,7.06632078 72.0782974,7.70358674 72.5006252,8.22242274 C72.6451057,8.39160839 72.6895613,8.57207309 72.6339918,8.76381683 C72.6117641,8.82021205 72.5784224,8.94992105 72.5339668,9.15294383 C72.4895113,9.35596661 72.4561696,9.48567561 72.4339418,9.54207083 C72.411714,9.66614031 72.3561446,9.74791338 72.2672335,9.78739003 C72.1783224,9.82686668 72.0782974,9.82404692 71.9671585,9.77893075 C71.311439,9.5082337 70.8196494,9.04297316 70.4917896,8.38314911 C70.1639299,7.72332506 70,6.95353034 70,6.07376494 L70,6.07376494 Z" id="Shape"></path>
        </g>
    </g>
</svg>