<?xml version="1.0" encoding="UTF-8"?>
<svg width="20px" height="16px" viewBox="0 0 20 16" version="1.1" xmlns="http://www.w3.org/2000/svg" xmlns:xlink="http://www.w3.org/1999/xlink">
    <!-- Generator: Sketch 43.2 (39069) - http://www.bohemiancoding.com/sketch -->
    <title>subscribe</title>
    <desc>Created with Sketch.</desc>
    <defs></defs>
    <g id="Blog" stroke="none" stroke-width="1" fill="none" fill-rule="evenodd">
        <g id="suscribe-copy" transform="translate(0.000000, -3.000000)" fill="#F65C5B">
            <g id="subscribe" transform="translate(0.000000, 3.000000)">
                <g id="Group-4">
                    <path d="M19.9567273,13.1265455 L19.9567273,0.036 L0.0654545455,0.036 L0.0654545455,15.4978182 L17.5865455,15.4978182 C18.8930909,15.4978182 19.9567273,14.4338182 19.9567273,13.1265455 Z M1.30181818,1.27272727 L18.72,1.27272727 L18.72,13.1265455 C18.72,13.7523636 18.2116364,14.2614545 17.5861818,14.2614545 L1.30181818,14.2614545 L1.30181818,1.27272727 Z" id="Shape"></path>
                    <rect id="Rectangle-path" x="9.49236364" y="8.93309091" width="7.00872727" height="1.23636364"></rect>
                    <rect id="Rectangle-path" x="9.49236364" y="11.4058182" width="7.00872727" height="1.23636364"></rect>
                    <path d="M7.69236364,2.59672727 L3.51963636,2.59672727 C3.17854545,2.59672727 2.90145455,2.87345455 2.90145455,3.21490909 L2.90145455,7.38763636 C2.90145455,7.72909091 3.17854545,8.00581818 3.51963636,8.00581818 L7.69272727,8.00581818 C8.03381818,8.00581818 8.31090909,7.72909091 8.31090909,7.38763636 L8.31090909,3.21490909 C8.31054545,2.87345455 8.03381818,2.59672727 7.69236364,2.59672727 Z M7.07418182,6.76945455 L4.13781818,6.76945455 L4.13781818,3.83309091 L7.07418182,3.83309091 L7.07418182,6.76945455 Z" id="Shape"></path>
                </g>
            </g>
        </g>
    </g>
</svg>