<?xml version="1.0" encoding="UTF-8"?>
<svg width="17px" height="14px" viewBox="0 0 17 14" version="1.1" xmlns="http://www.w3.org/2000/svg" xmlns:xlink="http://www.w3.org/1999/xlink">
    <!-- Generator: Sketch 43.2 (39069) - http://www.bohemiancoding.com/sketch -->
    <title>Shape</title>
    <desc>Created with Sketch.</desc>
    <defs></defs>
    <g id="Blog" stroke="none" stroke-width="1" fill="none" fill-rule="evenodd">
        <g id="Group-6-Copy" transform="translate(-30.000000, -1.000000)" fill="#D2D2D2">
            <path d="M46.76165,2.61547885 C46.1448749,2.88947561 45.4822017,3.07468745 44.7865946,3.15796226 C45.4965408,2.73158474 46.0418171,2.05643232 46.2986104,1.25189072 C45.6340712,1.64674911 44.8981969,1.9334388 44.1148532,2.08791866 C43.487602,1.41834195 42.5938346,1 41.6047355,1 C39.7055984,1 38.1659195,2.5424699 38.1659195,4.44509762 C38.1659195,4.71512579 38.1963326,4.97806953 38.2549656,5.23025544 C35.3969789,5.08653342 32.863061,3.7149753 31.1669949,1.63054677 C30.8709821,2.13937915 30.7013689,2.73119116 30.7013689,3.36259068 C30.7013689,4.55789088 31.3084538,5.6124209 32.2311939,6.23024194 C31.6674863,6.21233408 31.1372364,6.05736225 30.6736402,5.79930545 C30.6733129,5.81367109 30.6733129,5.82810233 30.6733129,5.84263196 C30.6733129,7.51186719 31.8587062,8.904285 33.4318102,9.22085391 C33.1432943,9.29953697 32.8394573,9.34178114 32.5258317,9.34178114 C32.3042313,9.34178114 32.0888183,9.32013428 31.8788071,9.279858 C32.3164424,10.6485299 33.5863968,11.6447446 35.0912103,11.6724591 C33.914296,12.5965832 32.4315148,13.147299 30.8203371,13.147299 C30.5427556,13.147299 30.2690371,13.131031 30,13.0990527 C31.521837,14.0766708 33.3294399,14.6470327 35.2714304,14.6470327 C41.5966821,14.6470327 45.0556317,9.39727581 45.0556317,4.84454777 C45.0556317,4.69518444 45.052227,4.54660827 45.0456467,4.39881926 C45.7176174,3.91310966 46.3006401,3.30634164 46.76165,2.61547885 L46.76165,2.61547885 Z" id="Shape"></path>
        </g>
    </g>
</svg>